<svg xmlns="http://www.w3.org/2000/svg" viewBox="0 0 1068.98 955.61"><defs><style>.cls-1{fill:#a9292a;}.cls-2{fill:#d92e2a;}.cls-3{fill:#ee3533;}.cls-4{fill:#b29090;}.cls-5{fill:#e0d6d5;}.cls-6{fill:#e0d5d5;}.cls-7{fill:#d93228;}</style></defs><g id="Layer_2" data-name="Layer 2"><g id="Layer_1-2" data-name="Layer 1"><polygon class="cls-1" points="627.56 168.4 775.07 317.58 775.07 495.27 627.56 495.27 627.56 168.4"/><rect class="cls-2" x="775.07" y="346.08" width="144.16" height="144.16"/><rect class="cls-2" x="626.73" y="495.27" width="144.16" height="149.19"/><polygon class="cls-3" points="1068.42 495.27 919.23 495.27 919.23 346.08 1068.42 495.27"/><polygon class="cls-1" points="924.26 793.64 775.07 793.64 775.07 644.45 924.26 793.64"/><polygon class="cls-4" points="775.07 644.45 924.26 644.45 924.26 793.64 775.07 644.45"/><polygon class="cls-5" points="1068.42 644.45 919.23 644.45 919.23 495.27 1068.42 644.45"/><polygon class="cls-4" points="919.23 495.27 1068.42 495.27 1068.42 644.45 919.23 495.27"/><polygon class="cls-3" points="626.73 644.45 775.91 644.45 775.91 793.64 626.73 644.45"/><polygon class="cls-1" points="232 147.66 230.81 357.45 105.17 483.09 0.87 378.79 232 147.66"/><polygon class="cls-1" points="157.52 793.84 367.32 792.65 492.96 667.01 388.65 562.7 157.52 793.84"/><rect class="cls-2" x="175.72" y="451.71" width="144.16" height="144.16" transform="translate(-297.79 328.64) rotate(-45)"/><polygon class="cls-3" points="493.55 667.6 388.06 562.11 493.55 456.62 493.55 667.6"/><polygon class="cls-1" points="211.55 589.47 106.06 694.96 0.57 589.47 211.55 589.47"/><polygon class="cls-4" points="0.57 589.47 106.06 483.98 211.55 589.47 0.57 589.47"/><polygon class="cls-6" points="493.55 456.62 388.06 562.11 282.57 456.62 493.55 456.62"/><polygon class="cls-4" points="282.57 456.62 388.06 351.13 493.55 456.62 282.57 456.62"/><polygon class="cls-3" points="2.05 378.49 107.54 483.98 2.05 589.47 2.05 378.49"/><rect class="cls-4" x="526.72" y="68.04" width="90.35" height="90.35" transform="translate(458.68 685.11) rotate(-90)"/><rect class="cls-4" x="449.68" width="43.7" height="43.7"/><path class="cls-4" d="M12.36,910.29q0,6.53,5.33,6.52H19.8v12.83Q0,929.64,0,913.49V907.4q0-16.56,18.29-16.57H71.06v13H17.69Q12.37,903.87,12.36,910.29Zm46.33,25.87q0-6.52-5.32-6.52H51.26V916.81q9.74,0,14.77,3.9t5,12.24V939q0,8.34-4.38,12.46t-13.82,4.11H0v-13H53.37Q58.7,942.57,58.69,936.16Z"/><path class="cls-4" d="M112.76,955.61H100.4V890.83H111l29.94,48.43L171,890.83h10.45v64.78H169.05v-38.8l-17,27.79a41.83,41.83,0,0,1-3,4.39,34.72,34.72,0,0,1-3.12,3.47,19.28,19.28,0,0,1-2.76,2.25,4.21,4.21,0,0,1-1.86.8H140.2q-1.5,0-4.37-2.73a38.07,38.07,0,0,1-6.08-8.18l-17-27.68Z"/><path class="cls-4" d="M283.72,955.61H269.25l-24-48.21-24,48.21H207l26.33-53.55q3-6.21,6.18-8.61c2.11-1.6,3.83-2.41,5.17-2.41h1.51a5.92,5.92,0,0,1,2.77.86,14.15,14.15,0,0,1,3.11,2.41,25,25,0,0,1,2.92,3.52,22.57,22.57,0,0,1,2.26,4.23Z"/><path class="cls-4" d="M321.61,936.37a5.07,5.07,0,0,0,.65,2.62,6.7,6.7,0,0,0,1.71,1.93,8.31,8.31,0,0,0,4.87,1.65H380.2v13H328.64q-8.83,0-14.07-4.54t-5.22-12.35V890.83h12.26Z"/><path class="cls-4" d="M421.81,936.37a5.17,5.17,0,0,0,.65,2.62,6.7,6.7,0,0,0,1.71,1.93,8.31,8.31,0,0,0,4.88,1.65H480.4v13H428.84q-8.83,0-14.07-4.54t-5.22-12.35V890.83h12.26Z"/><path class="cls-7" d="M655.21,936.26c0-4-1.58-6.16-4.72-6.52H596.41V916.8h53.27q5.54,0,5.53-6.63,0-6.3-5.53-6.3H596.41v-13h53.27a21.3,21.3,0,0,1,7.89,1.34,15.58,15.58,0,0,1,5.58,3.64,15.08,15.08,0,0,1,3.32,5.34,19.29,19.29,0,0,1,1.1,6.58V913a16,16,0,0,1-3.72,10.37,15.8,15.8,0,0,1,3.72,10.16v5.24a20,20,0,0,1-1.05,6.57,14.39,14.39,0,0,1-8.8,9,22.05,22.05,0,0,1-8,1.34H596.41v-13h53.27Q655.22,942.57,655.21,936.26Z"/><path class="cls-7" d="M755.41,936.15v-6.41h-39.9q-9.45,0-14-3.8t-4.57-12.13V890.72h12.26v19.67c0,4.27,1.77,6.41,5.33,6.41h40.9v-26h12.36v47.47q0,7.8-4.42,12.56t-14.17,4.76H696.92v-13h51.56a7.51,7.51,0,0,0,4.77-1.71A5.68,5.68,0,0,0,755.41,936.15Z"/><path class="cls-7" d="M868.17,890.82v13H838.83v51.74H826.47V903.87H797.12v-13Z"/><path class="cls-7" d="M968.58,903.87H897.52v-13h71.06Zm0,25.87H897.52V916.8h71.06Zm0,12.83v13H897.52v-13Z"/><path class="cls-7" d="M1010.28,910.28q0,6.53,5.33,6.52h2.11v12.83q-19.8,0-19.8-16.14V907.4q0-16.57,18.29-16.58H1069v13h-53.37Q1010.28,903.87,1010.28,910.28Zm46.34,25.87c0-4.34-1.78-6.52-5.33-6.52h-2.11V916.8q9.75,0,14.77,3.9t5,12.24V939q0,8.34-4.37,12.45t-13.82,4.12H997.92v-13h53.37Q1056.61,942.57,1056.62,936.15Z"/></g></g></svg>
